<svg xmlns="http://www.w3.org/2000/svg" width="400" height="300" viewBox="0 0 400 300">
  <defs>
    <linearGradient id="water" x1="0%" y1="0%" x2="0%" y2="100%">
      <stop offset="0%" style="stop-color:#1E90FF"/>
      <stop offset="100%" style="stop-color:#00008B"/>
    </linearGradient>
  </defs>
  <rect fill="url(#water)" width="400" height="300"/>
  <!-- Island -->
  <ellipse fill="#F4A460" cx="200" cy="200" rx="120" ry="50"/>
  <!-- Palm tree -->
  <rect fill="#8B4513" x="195" y="120" width="10" height="80"/>
  <ellipse fill="#228B22" cx="200" cy="110" rx="40" ry="20" transform="rotate(-30 200 110)"/>
  <ellipse fill="#2E8B57" cx="200" cy="110" rx="40" ry="20" transform="rotate(30 200 110)"/>
  <ellipse fill="#32CD32" cx="200" cy="100" rx="30" ry="15"/>
  <!-- Beach waves -->
  <path fill="none" stroke="#87CEEB" stroke-width="3" d="M0,250 Q50,240 100,250 Q150,260 200,250 Q250,240 300,250 Q350,260 400,250"/>
  <!-- Sun -->
  <circle fill="#FFD700" cx="350" cy="50" r="35"/>
  <!-- Clouds -->
  <ellipse fill="white" cx="80" cy="60" rx="40" ry="20"/>
  <ellipse fill="white" cx="110" cy="55" rx="30" ry="18"/>
</svg>
